<?xml version="1.0" encoding="UTF-8" standalone="no"?>
<!DOCTYPE svg PUBLIC "-//W3C//DTD SVG 20010904//EN" "http://www.w3.org/TR/2001/REC-SVG-20010904/DTD/svg10.dtd">
<svg version="1.0" xmlns="http://www.w3.org/2000/svg" width="358.000000pt" height="99.000000pt" viewBox="0 0 358.000000 99.000000" preserveAspectRatio="xMidYMid meet">

<g transform="translate(0.000000,99.000000) scale(0.100000,-0.100000)" fill="#8881ca" stroke="none">
<path d="M349 931 c-9 -15 -42 -42 -72 -60 -83 -48 -97 -69 -97 -155 0 -54 5 -79 21 -105 11 -18 17 -37 12 -40 -4 -4 -34 -15 -65 -25 -68 -20 -128 -71 -128 -109 0 -31 51 -77 115 -106 53 -23 52 -22 25 -151 -24 -110 -24 -110 -7 -110 6 0 26 28 42 61 41 82 78 125 121 139 78 26 146 -15 224 -135 39 -60 60 -79 60 -55 0 5 -9 48 -20 95 -30 130 -30 129 43 165 157 78 125 159 -92 226 -21 7 3 30 82 77 39 22 65 43 59 45 -6 2 -31 -8 -55 -22 -24 -14 -47 -26 -52 -26 -4 0 -5 16 -2 36 9 53 -10 131 -36 149 -28 19 -80 19 -117 0 -17 -9 -30 -11 -30 -6 0 8 45 33 79 43 10 3 3 12 -20 26 -20 12 -41 33 -49 47 -17 32 -21 31 -41 -4z m179 -206 l3 -68 -53 9 c-47 8 -117 8 -228 1 l-35 -2 -3 63 c-3 59 -2 62 20 62 13 0 43 -9 67 -20 57 -26 95 -25 156 4 28 14 55 23 60 22 6 -1 11 -33 13 -71z m-308 -248 c0 -28 -25 -124 -33 -129 -36 -23 -90 17 -85 62 3 28 59 70 94 70 13 0 24 -1 24 -3z m363 -8 c27 -14 56 -49 57 -68 0 -21 -40 -61 -61 -61 -9 0 -21 6 -26 13 -10 12 -33 95 -33 116 0 14 36 14 63 0z"/>
<path d="M287 724 c3 -7 9 -14 14 -14 14 0 10 17 -5 23 -10 4 -13 1 -9 -9z"/>
<path d="M440 720 c0 -5 5 -10 10 -10 6 0 10 5 10 10 0 6 -4 10 -10 10 -5 0 -10 -4 -10 -10z"/>
<path d="M880 515 l0 -385 104 0 c120 0 161 11 181 50 20 39 20 632 0 670 -21 40 -55 50 -175 50 l-110 0 0 -385z m230 0 l0 -315 -85 0 -85 0 0 315 0 315 85 0 85 0 0 -315z"/>
<path d="M1260 866 c0 -18 15 -78 33 -132 l32 -99 3 98 3 97 100 0 100 0 -3 33 -3 32 -132 3 -133 3 0 -35z"/>
<path d="M1620 869 c0 -34 15 -135 32 -209 5 -25 12 -64 13 -87 2 -23 13 -97 24 -165 11 -68 26 -158 32 -200 l13 -78 47 0 c55 0 46 -23 84 215 42 265 55 346 70 439 20 118 20 116 -15 116 -26 0 -30 -5 -38 -37 -9 -36 -49 -287 -74 -453 -6 -41 -14 -86 -18 -100 -7 -23 -8 -23 -17 15 -6 22 -23 121 -38 220 -15 99 -35 218 -44 265 -15 81 -17 85 -43 88 -25 3 -28 0 -28 -29z"/>
<path d="M2037 893 c-4 -3 -7 -174 -7 -380 l0 -373 124 0 c107 0 127 3 147 19 l24 19 3 324 c2 358 1 364 -58 385 -37 13 -222 18 -233 6z m223 -378 l0 -316 -82 3 -83 3 -3 300 c-1 165 0 305 3 312 3 9 29 13 85 13 l80 0 0 -315z"/>
<path d="M2526 888 c-4 -14 -29 -163 -46 -273 -36 -235 -35 -230 -58 -233 -17 -3 -22 -10 -22 -32 0 -16 7 -33 15 -38 14 -7 14 -18 5 -75 -5 -36 -13 -73 -16 -81 -5 -13 1 -16 29 -16 39 0 41 3 53 85 11 80 19 95 54 95 27 0 30 3 30 30 0 25 -4 30 -23 30 -13 0 -26 2 -29 5 -3 3 1 45 8 93 35 229 42 267 50 259 5 -4 37 -191 54 -307 14 -97 40 -253 46 -272 4 -12 15 -18 36 -18 l30 0 -7 48 c-3 26 -24 157 -46 292 -22 135 -44 279 -50 320 -6 41 -15 81 -21 88 -6 6 -28 12 -50 12 -22 0 -40 -5 -42 -12z"/>
<path d="M2800 858 c0 -23 12 -80 28 -127 l27 -84 5 89 5 89 83 3 83 3 -3 -123 -3 -123 -62 -3 c-35 -2 -63 -7 -63 -11 0 -7 85 -305 112 -393 10 -34 15 -38 45 -38 18 0 33 4 33 10 0 5 -13 51 -29 102 -47 147 -71 234 -71 252 0 10 8 16 24 16 14 0 37 11 52 24 27 23 28 27 32 147 2 75 0 135 -7 152 -17 43 -63 57 -186 57 l-105 0 0 -42z"/>
<path d="M3180 866 c0 -19 12 -72 28 -118 26 -80 27 -81 30 -43 1 22 5 59 8 82 l5 42 97 3 97 3 0 30 0 30 -132 3 -133 3 0 -35z"/>
<path d="M1260 360 l0 -230 83 0 c45 0 106 3 135 7 50 6 53 7 50 32 -3 26 -4 26 -100 29 l-98 3 0 159 0 160 80 0 80 0 0 35 0 35 -115 0 -115 0 0 -230z"/>
<path d="M2800 365 l0 -225 30 0 30 0 0 225 0 225 -30 0 -30 0 0 -225z"/>
<path d="M3180 365 l0 -225 43 0 c24 0 85 -3 135 -6 l92 -7 0 37 0 36 -99 0 -100 0 -6 54 c-8 63 -3 251 7 261 4 4 40 8 80 9 l73 1 3 33 3 32 -115 0 -116 0 0 -225z"/>
</g>
</svg>