<?xml version="1.0" standalone="no"?>
<!DOCTYPE svg PUBLIC "-//W3C//DTD SVG 20010904//EN"
 "http://www.w3.org/TR/2001/REC-SVG-20010904/DTD/svg10.dtd">
<svg version="1.0" xmlns="http://www.w3.org/2000/svg"
 width="192.000000pt" height="192.000000pt" viewBox="0 0 192.000000 192.000000"
 preserveAspectRatio="xMidYMid meet">
<metadata>
Created by potrace 1.11, written by Peter Selinger 2001-2013
</metadata>
<g transform="translate(0.000000,192.000000) scale(0.100000,-0.100000)"
fill="#000000" stroke="none">
<path d="M928 1892 c-6 -15 -11 -30 -10 -34 1 -5 -1 -7 -5 -6 -5 1 -25 -13
-45 -32 -20 -19 -43 -39 -50 -45 -27 -20 -98 -65 -103 -65 -4 0 -13 -6 -20
-12 -33 -30 -45 -38 -45 -33 0 11 -46 -40 -53 -58 -3 -9 -11 -17 -17 -17 -6 0
-8 -4 -5 -10 3 -5 1 -10 -5 -10 -6 0 -9 -4 -5 -9 3 -5 1 -12 -4 -15 -5 -3 -8
-22 -7 -41 1 -19 -2 -35 -5 -35 -4 0 -5 -21 -4 -47 1 -27 -2 -56 -7 -67 -7
-13 -7 -16 1 -12 10 6 18 -46 12 -78 -1 -4 4 -15 11 -24 11 -13 11 -14 -2 -7
-11 6 -10 3 3 -12 9 -11 14 -23 10 -26 -3 -4 -1 -7 5 -7 7 0 12 -9 12 -19 0
-11 4 -21 10 -23 15 -5 18 -74 3 -71 -7 2 -13 -2 -13 -9 0 -6 -2 -9 -6 -6 -3
3 -27 -3 -53 -13 -27 -10 -51 -15 -55 -12 -3 4 -6 1 -6 -5 0 -7 -7 -12 -16
-12 -47 0 -224 -124 -224 -157 0 -7 -6 -16 -14 -19 -8 -3 -12 -12 -9 -20 3 -8
-1 -14 -8 -14 -11 0 -11 -3 1 -10 10 -6 11 -10 3 -10 -9 0 -6 -12 8 -37 24
-42 82 -103 98 -103 6 0 11 -4 11 -9 0 -5 9 -13 20 -16 11 -4 18 -11 15 -16
-3 -5 1 -6 9 -3 9 3 16 1 16 -5 0 -6 7 -11 15 -11 8 0 15 -5 15 -12 0 -6 3 -9
6 -5 4 3 26 -5 49 -18 24 -13 46 -21 49 -18 3 4 6 -1 6 -10 0 -10 4 -17 9 -17
5 0 8 -13 7 -30 -1 -16 2 -30 7 -30 6 0 5 -5 0 -13 -6 -6 -9 -22 -8 -35 1 -12
-2 -22 -7 -22 -5 0 -8 -8 -7 -17 1 -10 0 -21 -1 -25 -5 -14 -6 -23 -15 -78 -5
-30 -8 -58 -7 -62 1 -5 -2 -8 -6 -8 -4 0 -9 -10 -9 -22 -4 -55 -9 -78 -16 -78
-4 0 -5 -13 -2 -29 3 -17 0 -33 -6 -37 -15 -9 9 -24 36 -23 12 0 15 3 7 6 -10
4 -8 9 7 20 12 8 18 19 15 25 -4 6 -3 9 2 6 8 -5 28 9 31 22 1 3 7 19 14 35 7
17 12 33 11 38 -1 4 2 7 8 7 5 0 10 6 10 14 0 8 7 17 16 20 8 3 13 10 10 15
-3 5 3 20 14 33 11 14 16 28 13 32 -3 3 1 6 10 6 10 0 14 6 11 14 -3 7 2 16
11 20 9 3 13 11 9 17 -4 8 -3 9 5 5 6 -4 14 -1 16 7 9 22 98 85 125 89 14 2
31 7 39 12 8 5 16 3 22 -5 6 -10 9 -10 9 -2 0 15 52 14 62 -2 5 -7 8 -6 8 1 0
8 10 8 35 0 19 -6 35 -15 35 -19 0 -5 5 -5 10 -2 6 3 13 -1 16 -9 3 -9 10 -14
14 -11 4 2 26 -13 48 -34 22 -22 43 -36 46 -33 3 3 6 0 6 -6 0 -6 10 -22 23
-35 29 -31 57 -66 57 -72 0 -3 8 -14 18 -25 9 -11 17 -24 17 -28 0 -4 10 -17
22 -28 13 -12 23 -28 23 -35 0 -16 40 -55 53 -51 4 1 6 -1 6 -5 -3 -21 3 -31
22 -36 20 -5 21 -3 15 41 -4 26 -7 55 -7 65 0 9 -6 17 -12 17 -7 0 -6 4 3 10
9 6 10 10 3 10 -6 0 -12 8 -13 17 -1 34 -8 78 -13 93 -17 49 -24 77 -21 93 1
9 -2 17 -8 17 -5 0 -6 9 -3 20 4 13 2 20 -7 20 -10 0 -9 3 2 10 13 9 13 10 0
10 -13 0 -13 1 0 10 13 9 13 10 0 10 -13 0 -13 1 0 10 13 9 13 10 0 10 -11 1
-10 4 5 16 11 8 18 16 15 18 -3 2 8 17 24 32 16 16 26 22 21 14 -6 -11 -3 -10
12 2 11 10 25 18 31 18 7 0 12 4 12 10 0 5 3 10 8 9 15 -2 52 14 52 22 0 5 5
9 11 9 21 0 108 71 129 104 22 37 33 93 19 102 -5 3 -7 10 -4 15 4 5 1 9 -4 9
-6 0 -11 5 -11 11 0 13 -73 83 -91 87 -8 2 -15 8 -17 13 -2 5 -10 9 -18 9 -8
0 -14 4 -14 10 0 5 -6 7 -14 4 -7 -3 -21 2 -30 11 -9 9 -25 17 -36 18 -11 1
-20 5 -20 10 0 4 -4 5 -10 2 -5 -3 -10 -1 -10 4 0 6 -3 10 -7 10 -15 -3 -74
14 -79 22 -3 5 -15 9 -28 9 -17 0 -22 6 -22 25 0 13 2 23 4 21 2 -3 12 3 21
12 33 31 61 52 70 52 5 0 16 6 23 13 7 6 30 21 51 32 20 11 37 23 37 27 0 5 6
8 13 8 6 0 24 10 39 23 14 12 35 27 45 34 38 25 -24 14 -79 -14 -29 -15 -56
-26 -60 -25 -5 1 -8 -2 -8 -6 0 -8 -43 -33 -66 -38 -6 -1 -11 3 -11 10 0 6 -4
19 -8 29 -4 11 -3 17 5 17 9 0 9 4 -1 17 -12 14 -12 15 0 9 10 -7 12 -3 6 14
-4 13 -3 20 2 17 5 -4 10 1 10 9 0 9 -6 13 -14 10 -9 -4 -11 -2 -6 7 10 17 13
76 4 82 -5 2 -7 16 -6 30 2 14 -1 25 -6 25 -5 0 -9 11 -9 25 0 14 -5 25 -11
25 -5 0 -8 4 -4 10 3 5 -1 17 -10 27 -8 10 -22 27 -31 38 -8 11 -13 13 -9 5 6
-13 5 -13 -7 0 -7 8 -24 16 -38 17 -92 7 -120 8 -120 2 0 -3 -6 -6 -12 -7 -25
-2 -48 -8 -54 -15 -4 -4 -16 -7 -26 -7 -11 0 -17 -4 -14 -8 2 -4 -4 -8 -14 -8
-15 0 -16 4 -9 18 6 10 14 16 18 13 5 -3 12 2 15 11 3 8 10 12 16 9 5 -3 10
-1 10 6 0 6 8 9 20 6 13 -3 20 0 20 9 0 8 6 14 13 13 23 -4 47 13 47 33 0 10
-4 17 -9 14 -5 -3 -11 1 -15 9 -3 8 -12 15 -19 15 -18 0 -100 82 -124 124 -16
29 -43 28 -55 -2z m350 -338 c1 -8 3 -21 4 -29 1 -8 6 -15 12 -15 6 0 4 -5 -4
-10 -8 -5 -10 -10 -5 -10 6 0 10 -31 10 -75 0 -41 3 -75 7 -75 4 0 3 -11 -2
-25 -7 -18 -6 -25 3 -25 7 0 6 -4 -4 -10 -16 -9 -37 -9 -54 2 -5 3 -22 4 -38
2 -15 -1 -25 0 -23 4 2 4 -24 7 -57 7 -34 0 -74 3 -88 7 -15 3 -32 1 -38 -5
-6 -6 -11 -7 -11 -1 0 5 -9 10 -20 11 -11 1 -18 -2 -15 -8 4 -5 -3 -5 -18 0
-13 5 -29 6 -34 3 -6 -4 -61 -7 -122 -7 -61 0 -111 -3 -111 -6 0 -15 -44 0
-46 16 -2 10 -5 29 -9 42 -3 13 -1 23 5 23 7 0 7 7 -1 21 -7 14 -8 24 -1 31
12 12 4 41 -8 33 -5 -3 -5 8 0 25 5 17 5 32 0 35 -5 3 -1 14 9 24 20 20 64 21
97 3 12 -6 24 -9 27 -5 4 3 17 -1 29 -9 13 -8 41 -20 63 -27 22 -7 47 -15 55
-18 25 -10 100 -11 106 -2 3 5 14 4 26 -2 15 -8 19 -8 13 1 -4 7 -2 10 6 9 16
-2 61 14 100 36 14 8 29 12 33 8 3 -3 6 -1 6 6 0 7 4 10 9 6 5 -3 12 -1 16 5
4 6 10 8 15 5 5 -3 11 -2 14 3 8 14 43 11 44 -4z m-688 -678 c0 -7 3 -7 8 -1
9 13 35 19 28 6 -4 -5 -2 -13 4 -16 8 -5 7 -11 -1 -21 -6 -8 -9 -14 -6 -14 3
0 -1 -22 -8 -50 -7 -27 -11 -50 -8 -50 3 0 0 -7 -7 -15 -7 -9 -10 -18 -6 -22
3 -3 -1 -15 -11 -25 -13 -14 -13 -18 -2 -18 8 0 10 -3 4 -8 -5 -4 -15 -16 -21
-27 -9 -16 -22 -20 -62 -21 -29 -1 -49 3 -46 7 3 5 0 9 -7 9 -18 0 -60 50 -53
62 4 6 2 8 -3 5 -6 -4 -13 2 -16 13 -3 11 0 20 5 20 7 0 6 5 -1 14 -8 10 -9
16 -1 21 6 3 8 11 5 16 -4 5 -2 9 3 9 5 0 15 11 22 25 7 13 17 22 21 19 4 -2
13 5 19 16 6 11 15 18 19 16 4 -3 17 3 28 14 12 10 24 16 27 13 3 -4 6 -2 6 3
0 5 14 9 30 10 17 1 30 -4 30 -10z m785 -1 c22 -5 44 -7 48 -6 5 1 6 -3 2 -9
-3 -5 -1 -10 4 -10 6 0 28 -16 48 -35 20 -19 33 -35 29 -35 -5 0 2 -9 15 -21
13 -11 18 -17 11 -14 -11 6 -11 3 -2 -11 13 -22 -2 -74 -21 -74 -7 0 -10 -3
-6 -6 19 -20 -97 -82 -119 -63 -6 5 -13 6 -17 3 -3 -3 -8 4 -12 15 -3 12 -11
21 -16 21 -5 0 -9 14 -9 30 0 17 -5 30 -10 30 -6 0 -10 6 -9 13 2 6 -3 32 -10
57 -25 88 -19 132 17 126 9 -2 35 -7 57 -11z"/>
<path d="M781 1431 c-9 -6 -10 -11 -2 -15 6 -4 9 -11 6 -16 -3 -4 2 -10 10
-14 9 -3 19 3 26 17 7 12 8 19 4 15 -4 -4 -13 -1 -19 7 -7 9 -16 12 -25 6z"/>
<path d="M1119 1427 c-1 -1 -3 -12 -4 -23 -2 -16 2 -20 16 -17 23 6 25 29 4
37 -8 3 -16 4 -16 3z"/>
</g>
</svg>
